<?xml version="1.0" standalone="no"?>
<!DOCTYPE svg PUBLIC "-//W3C//DTD SVG 20010904//EN"
 "http://www.w3.org/TR/2001/REC-SVG-20010904/DTD/svg10.dtd">
<svg version="1.0" xmlns="http://www.w3.org/2000/svg"
 width="700.000000pt" height="700.000000pt" viewBox="0 0 700.000000 700.000000"
 preserveAspectRatio="xMidYMid meet">
<metadata>
Created by potrace 1.14, written by Peter Selinger 2001-2017
</metadata>
<g transform="translate(0.000000,700.000000) scale(0.100000,-0.100000)"
fill="#000000" stroke="none">
<path d="M1358 6721 c-217 -70 -336 -290 -274 -505 69 -237 339 -361 560 -258
70 33 151 105 188 170 13 23 27 40 29 38 2 -3 16 -7 29 -9 14 -3 63 -13 110
-22 47 -9 98 -19 114 -22 16 -2 40 -9 52 -13 l23 -9 -1 -340 c-1 -337 -1 -339
-22 -344 -11 -2 -165 -43 -341 -90 -804 -216 -1520 -408 -1660 -444 -134 -35
-171 -75 -162 -172 3 -31 22 -130 42 -221 20 -91 38 -172 40 -181 2 -9 14 -61
26 -115 22 -98 23 -108 24 -869 2 -678 4 -774 17 -800 9 -16 127 -140 263
-275 135 -135 252 -256 258 -270 10 -19 12 -129 11 -445 -1 -231 -2 -429 -3
-440 -1 -19 -8 -20 -222 -19 -219 0 -221 0 -259 -25 -22 -14 -45 -38 -52 -55
-8 -21 -12 -114 -11 -331 0 -338 1 -344 73 -388 l34 -21 1381 -1 c937 0 1393
3 1419 10 26 7 50 24 70 48 l31 38 -1 312 c0 339 -2 350 -56 390 -21 16 -45
21 -120 23 l-93 2 -3 1804 -2 1804 97 29 c256 76 265 80 298 144 14 28 16 48
10 120 -4 47 -9 95 -10 106 -8 52 -16 115 -20 165 -3 30 -7 71 -10 90 -2 19
-7 60 -10 90 -10 92 -14 105 -41 154 -41 74 -90 77 -294 21 -74 -20 -142 -38
-150 -40 -8 -1 -75 -19 -147 -38 l-133 -35 0 289 c0 184 4 288 10 284 15 -9
88 32 106 61 35 52 23 135 -25 178 -19 17 -130 44 -291 72 -79 13 -383 74
-385 76 -1 2 -10 23 -19 48 -73 188 -303 294 -498 231z m192 -277 c36 -22 64
-76 62 -120 -4 -104 -110 -162 -199 -108 -41 24 -73 74 -73 114 0 69 81 142
148 134 19 -3 47 -12 62 -20z m1406 -1140 c2 -10 7 -48 10 -84 3 -36 8 -67 9
-71 2 -3 7 -37 10 -75 l7 -70 -79 -23 c-43 -13 -98 -29 -123 -37 -25 -7 -139
-40 -255 -73 -230 -65 -566 -162 -1030 -296 -741 -214 -921 -266 -940 -271
-11 -2 -56 -15 -100 -28 l-80 -23 -18 76 c-42 183 -56 247 -59 270 -3 22 7 26
307 106 345 93 995 267 1535 412 195 52 432 115 525 140 94 25 190 51 215 58
54 16 62 15 66 -11z m-359 -2469 l0 -1765 -31 -1 c-168 -4 -1598 -1 -1603 4
-3 4 -7 384 -7 845 -1 804 -2 838 -20 865 -52 78 -182 78 -233 0 -15 -22 -18
-55 -19 -217 -1 -105 -3 -193 -3 -194 -1 -2 -62 57 -136 131 l-135 135 0 670
0 671 43 11 c23 6 62 17 87 25 25 8 275 80 555 161 281 80 625 179 765 219
140 40 358 103 484 139 126 36 232 68 234 71 3 2 8 2 12 0 4 -2 7 -799 7
-1770z m271 -2179 l3 -136 -1231 0 -1230 0 0 134 0 135 33 3 c17 2 570 2 1227
2 l1195 -1 3 -137z"/>
<path d="M5385 6733 c-52 -12 -148 -69 -193 -114 -43 -43 -102 -140 -102 -167
0 -11 -24 -18 -86 -27 -21 -4 -55 -10 -74 -15 -19 -5 -51 -12 -70 -15 -44 -7
-127 -22 -160 -30 -14 -3 -38 -7 -55 -10 -29 -5 -51 -9 -105 -20 -14 -3 -43
-8 -65 -11 -52 -8 -97 -29 -126 -60 -20 -21 -24 -36 -24 -84 0 -51 4 -63 29
-89 34 -35 69 -50 112 -45 l32 4 0 -280 c0 -254 -2 -280 -17 -280 -9 0 -81 18
-161 39 -80 22 -213 56 -295 77 l-151 38 -45 -22 c-70 -34 -85 -73 -104 -282
-3 -36 -7 -76 -10 -90 -2 -14 -7 -52 -10 -85 -4 -33 -8 -73 -10 -90 -18 -139
-17 -192 3 -232 25 -49 41 -57 239 -119 l152 -48 -2 -1804 -2 -1804 -85 -2
c-101 -2 -144 -22 -169 -78 -15 -31 -17 -77 -16 -340 0 -300 1 -304 24 -336
50 -71 -69 -66 1486 -66 l1401 0 32 23 c63 45 65 53 65 386 0 431 17 409 -313
412 -124 1 -227 2 -230 2 -3 1 -5 204 -5 451 l0 450 262 263 c143 144 266 273
273 286 10 19 13 198 12 780 l0 756 35 160 c30 138 65 303 78 370 3 11 10 41
16 67 10 45 8 105 -6 138 -4 8 -18 25 -33 36 -26 21 -91 39 -787 225 -121 32
-236 63 -255 69 -19 5 -170 46 -335 90 -165 44 -336 90 -380 102 -44 13 -82
23 -85 23 -3 0 -71 18 -152 40 l-148 39 0 342 0 341 169 34 169 34 22 -43 c27
-49 106 -124 162 -153 142 -73 315 -57 438 40 64 51 85 77 122 151 31 61 33
71 33 170 0 97 -2 110 -31 170 -45 94 -99 150 -190 196 -72 36 -83 39 -168 40
-50 1 -100 -1 -111 -3z m171 -288 c77 -50 80 -184 5 -228 -44 -26 -92 -28
-136 -7 -112 54 -99 214 20 248 39 12 82 7 111 -13z m-1444 -1141 c51 -14 136
-36 188 -50 52 -14 158 -43 235 -64 77 -20 262 -70 410 -110 496 -132 709
-190 821 -220 61 -17 119 -32 130 -35 10 -2 136 -36 279 -74 143 -39 307 -83
365 -98 96 -24 125 -37 115 -53 -2 -3 -6 -26 -10 -50 -3 -25 -10 -63 -15 -85
-5 -22 -11 -53 -14 -70 -3 -16 -10 -54 -16 -84 -5 -29 -10 -55 -10 -56 0 -4
-2608 743 -2620 750 -4 2 -1 42 5 87 7 46 15 111 19 145 6 59 14 93 21 93 2 0
46 -12 97 -26z m513 -772 c94 -27 179 -52 190 -54 11 -3 171 -49 355 -103 184
-53 349 -100 365 -105 25 -6 942 -270 998 -286 16 -5 17 -46 17 -675 l0 -669
-135 -136 c-74 -75 -135 -135 -136 -133 -1 2 -2 90 -3 195 -2 212 -6 228 -68
260 -74 38 -169 4 -198 -71 -4 -11 -8 -383 -8 -825 -1 -443 -1 -818 -1 -835
l-1 -30 -817 1 -818 1 -2 1770 -1 1771 46 -13 c26 -7 124 -35 217 -63z m1923
-3876 l3 -136 -1231 0 c-977 0 -1230 3 -1231 13 -4 60 4 253 11 257 4 3 556 4
1227 4 l1218 -1 3 -137z"/>
</g>
</svg>
